<svg xmlns="http://www.w3.org/2000/svg" xmlns:xlink="http://www.w3.org/1999/xlink" version="1.1" width="126.75" height="92.99542" viewBox="0 0 126.75 92.99542">
<g>
<path d="M123.504 61.309 126.348 65.168H126.75V92.996H0V80.832H4.879V64.734H8.957L25.578 55.59 25.598 64.738H26.363L42.98 55.59 43 64.738H44.012L59.93 55.59 60.055 74.598H63.543V65.172H66.953L68.223 .852C68.223 .125 68.953 0 69.855 0 70.758 0 71.488 .125 71.488 .852L73.332 65.172H74.742L76.008 .852C76.008 .125 76.742 0 77.641 0 78.543 0 79.273 .125 79.273 .852L81.117 65.172H91.793V54.715H94.922V40.008H98.582V38.73C98.57 38.645 98.559 38.559 98.559 38.469 98.559 37.496 99.406 36.711 100.453 36.711H103.734V29.922C103.734 29.543 104.043 29.234 104.422 29.234H114.004C114.383 29.234 114.688 29.543 114.688 29.922V43.504H118.199V54.113L118.312 54.27H120.223V56.859L123.457 61.246H123.504ZM113.316 30.605H105.105V36.711H108.363C109.41 36.711 110.258 37.496 110.258 38.469V43.5H113.316ZM96.734 43.5V40.664H95.578V43.5ZM98.582 43.5V40.664H97.383V43.5ZM96.734 44.188H95.578V48.59H96.734ZM98.582 44.188H97.383V48.59H98.582ZM110.887 44.188 111.727 45.328V44.188ZM112.414 44.188V46.262L113.316 47.484V44.188ZM115.648 46.234V44.188H114.691V47.539ZM116.336 45.297 117.152 44.188H116.336ZM116.336 48.715H117.512V44.855L116.336 46.457ZM111.727 48.715V46.484L110.551 44.887V48.715ZM114.691 48.715H115.648V47.395L114.691 48.699ZM112.414 48.715H113.316V48.641L112.414 47.418ZM96.734 49.273H95.578V54.711H96.734ZM98.582 54.266V49.273H97.383V54.711H98.582ZM110.551 53.18 111.727 51.578V49.398H110.551ZM112.414 50.641 113.316 49.41V49.398H112.414ZM115.648 49.398H114.727L115.648 50.648ZM116.336 49.398V51.582L117.512 53.18V49.398ZM114.691 53.926H115.648V51.809L114.691 50.508ZM112.414 51.805V53.926H113.316V50.57ZM111.727 53.922V52.738L110.855 53.922ZM116.336 52.742V53.926H117.207ZM92.746 55.398 93.316 56.332V55.398ZM94.918 58.961V55.398H94V57.457ZM97.203 56.316 97.75 55.406H97.203ZM95.602 58.988 96.52 57.465V55.41H95.602ZM97.203 59.922H98.043V56.258L97.203 57.652ZM93.316 59.922V57.652L92.477 56.281V59.922ZM120.223 58.641H120.684L120.223 58.016ZM94 58.777V59.922H94.699ZM96.52 58.797 95.844 59.922H96.52ZM120.223 59.941H121.645L121.191 59.328H120.223ZM93.316 60.609H92.477V64.199L93.316 62.805ZM94 60.609V61.66L94.629 60.609ZM95.922 60.609 96.52 61.59V60.609ZM97.203 62.719 98.043 64.09V60.609H97.203ZM120.223 60.629V61.246H122.602L122.152 60.629ZM96.52 62.91 95.602 61.41V65.137H96.52ZM94.918 61.469 94 62.996V65.133H94.918ZM120.223 61.934V62.547H123.562L123.109 61.934ZM124.07 63.234H120.219V63.848H124.52ZM97.875 65.133 97.207 64.039V65.133ZM92.719 65.133H93.316V64.141ZM125.027 64.535H120.223V65.168H125.496ZM98.043 65.133V65.043L97.891 65.133ZM98.043 65.133" fill="#c4d600" fill-rule="evenodd"/>
</g>
</svg>
