<svg xmlns="http://www.w3.org/2000/svg" xmlns:xlink="http://www.w3.org/1999/xlink" version="1.1" width="315" height="156.10204" viewBox="0 0 315 156.10204">
<g>
<path d="M0 133.363C0 144.09 9.906 151.328 20.02 151.328 21.711 151.328 23.406 151.07 25.047 150.711 28.898 153.996 33.773 156.102 38.906 156.102 40.035 156.102 41.422 156 42.5 155.691V148.199C41.73 148.402 40.805 148.559 39.934 148.559 37.57 148.559 35.059 147.84 33.262 146.812 37.367 143.527 40.035 138.652 40.035 133.363 40.035 122.637 30.129 115.398 20.02 115.398 9.906 115.398 0 122.637 0 133.363ZM20.02 127.254C23.457 127.254 27 129.617 27 133.312 27 137.008 23.457 139.367 20.02 139.367 16.578 139.367 13.039 137.008 13.039 133.312 13.039 129.617 16.578 127.254 20.02 127.254ZM20.02 127.254" fill="#ffffff"/>
<path d="M43.629 115.398V133.465C43.629 143.371 50.352 151.43 61.387 151.43 72.426 151.43 79.148 143.371 79.148 133.465V115.398H66.574V133.465C66.574 136.801 65.238 139.523 61.387 139.523 57.539 139.523 56.203 136.801 56.203 133.465V115.398ZM43.629 115.398" fill="#ffffff"/>
<path d="M77.145 151.328H91.52L98.344 139.062 105.223 151.328H119.594L98.344 113.348ZM98.344 151.328C99.938 151.328 101.27 149.992 101.27 148.402 101.27 146.762 99.938 145.477 98.344 145.477 96.754 145.477 95.418 146.762 95.418 148.402 95.418 149.992 96.754 151.328 98.344 151.328ZM98.344 151.328" fill="#ffffff"/>
<path d="M127.68 147.273V115.398H123.215V151.328H154.832V147.273ZM127.68 147.273" fill="#ffffff"/>
<path d="M161.453 115.398V151.328H193.738V147.273H165.867V134.543H190.402V130.746H165.867V119.453L193.738 119.402V115.398ZM161.453 115.398" fill="#ffffff"/>
<path d="M218.043 151.996C225.895 151.996 232.668 147.684 235.902 141.523L231.645 140.141C229.027 144.09 224.969 147.582 218.043 147.582 209.266 147.582 202.59 140.859 202.59 133.414 202.59 125.152 209.828 119.195 218.043 119.195 224.355 119.195 228.82 121.918 231.848 126.742L235.902 125.355C232.668 119.145 225.895 114.836 218.043 114.836 207.059 114.836 198.125 123.148 198.125 133.414 198.125 143.68 207.059 151.996 218.043 151.996ZM218.043 151.996" fill="#ffffff"/>
<path d="M241.828 115.398V119.391H255.746V151.328H260.148V119.391H274.02V115.398ZM241.828 115.398" fill="#ffffff"/>
<path d="M272.551 151.328H277.684L293.75 122.535 309.867 151.328H315L293.75 113.348ZM293.75 151.328C295.34 151.328 296.676 149.992 296.676 148.402 296.676 146.762 295.34 145.477 293.75 145.477 292.16 145.477 290.824 146.762 290.824 148.402 290.824 149.992 292.16 151.328 293.75 151.328ZM293.75 151.328" fill="#ffffff"/>
<path d="M217.621 61.301 220.465 65.16H220.867V92.984H94.133V80.824H99.012V64.727H103.09L119.707 55.586 119.727 64.73H120.492L137.109 55.586 137.129 64.73H138.141L154.055 55.586 154.18 74.59H157.668V65.164H161.078L162.348 .852C162.348 .125 163.078 0 163.98 0 164.879 0 165.609 .125 165.609 .852L167.457 65.164H168.863L170.133 .852C170.133 .125 170.863 0 171.766 0 172.668 0 173.395 .125 173.395 .852L175.242 65.164H185.914V54.711H189.043V40.004H192.703V38.727C192.691 38.641 192.68 38.555 192.68 38.465 192.68 37.492 193.527 36.707 194.574 36.707H197.852V29.918C197.852 29.539 198.164 29.23 198.543 29.23H208.121C208.5 29.23 208.809 29.539 208.809 29.918V43.496H212.32V54.109L212.434 54.262H214.34V56.852L217.574 61.238H217.621ZM207.434 30.602H199.227V36.707H202.484C203.531 36.707 204.379 37.492 204.379 38.465V43.496H207.434ZM190.855 43.496V40.66H189.699V43.496ZM192.703 43.496V40.66H191.504V43.496ZM190.855 44.184H189.699V48.582H190.855ZM192.703 44.184H191.504V48.582H192.703ZM205.008 44.184 205.844 45.324V44.184ZM206.531 44.184V46.254L207.434 47.48V44.184ZM209.766 46.23V44.184H208.809V47.535ZM210.457 45.293 211.27 44.184H210.457ZM210.453 48.707H211.629V44.848L210.453 46.453ZM205.844 48.707V46.48L204.668 44.883V48.707ZM208.809 48.707H209.766V47.387L208.809 48.695ZM206.531 48.707H207.434V48.637L206.531 47.414ZM190.855 49.27H189.699V54.707H190.855ZM192.703 54.262V49.27H191.504V54.707H192.703ZM204.668 53.176 205.844 51.57V49.395H204.668ZM206.531 50.637 207.434 49.406V49.395H206.531ZM209.766 49.395H208.844L209.766 50.645ZM210.457 49.395V51.574L211.633 53.176V49.395ZM208.809 53.918H209.766V51.801L208.809 50.504ZM206.531 51.797V53.918H207.434V50.566ZM205.844 53.918V52.73L204.973 53.918ZM210.457 52.734V53.918H211.328ZM186.867 55.391 187.438 56.324V55.391ZM189.039 58.953V55.391H188.121V57.449ZM191.324 56.309 191.871 55.402H191.324ZM189.723 58.984 190.641 57.457V55.402H189.723ZM191.324 59.914H192.164V56.25L191.324 57.645ZM187.438 59.918V57.645L186.598 56.273V59.918ZM214.34 58.633H214.801L214.34 58.008ZM188.121 58.773V59.914H188.82ZM190.641 58.789 189.965 59.914H190.641ZM214.34 59.938H215.762L215.309 59.324H214.34ZM187.438 60.605H186.598V64.191L187.438 62.797ZM188.121 60.605V61.652L188.75 60.605ZM190.043 60.605 190.641 61.582V60.605ZM191.324 62.711 192.164 64.082V60.605H191.324ZM214.34 60.621V61.238H216.723L216.27 60.621ZM190.641 62.902 189.723 61.402V65.129H190.641ZM189.039 61.461 188.121 62.988V65.129H189.039ZM214.34 61.926V62.539H217.68L217.227 61.926ZM218.188 63.227H214.34V63.84H218.641ZM191.996 65.129 191.328 64.031V65.129ZM186.84 65.129H187.438V64.133ZM219.148 64.527H214.34V65.16H219.613ZM192.164 65.129V65.035L192.012 65.129ZM192.164 65.129" fill="#c4d600" fill-rule="evenodd"/>
</g>
</svg>
